#VRML V2.0 utf8
Shape {
 appearance Appearance { material Material { diffuseColor 0.08 0.08 0.08 } }
 geometry IndexedFaceSet {
  solid FALSE
  coord Coordinate { point [ -2.36220 2.36220 0.00000, 2.36220 2.36220 0.00000, -2.36220 -2.36220 0.00000, 2.36220 -2.36220 0.00000, -2.36220 2.36220 1.18110, 2.36220 2.36220 1.18110, -2.36220 -2.36220 1.18110, 2.36220 -2.36220 1.18110 ] }
  coordIndex [ 0 2 3 1 -1, 4 5 7 6 -1, 0 1 5 4 -1, 2 6 7 3 -1, 0 4 6 2 -1, 1 3 7 5 -1 ]
 }
}
Shape {
 appearance Appearance { material Material { diffuseColor 0.02 0.02 0.02 } }
 geometry IndexedFaceSet {
  solid FALSE
  coord Coordinate { point [ 0.35433 -0.00000 1.18110, 0.34226 -0.09171 1.18110, 0.30686 -0.17717 1.18110, 0.25055 -0.25055 1.18110, 0.17717 -0.30686 1.18110, 0.09171 -0.34226 1.18110, 0.00000 -0.35433 1.18110, -0.09171 -0.34226 1.18110, -0.17717 -0.30686 1.18110, -0.25055 -0.25055 1.18110, -0.30686 -0.17717 1.18110, -0.34226 -0.09171 1.18110, -0.35433 -0.00000 1.18110, -0.34226 0.09171 1.18110, -0.30686 0.17717 1.18110, -0.25055 0.25055 1.18110, -0.17717 0.30686 1.18110, -0.09171 0.34226 1.18110, -0.00000 0.35433 1.18110, 0.09171 0.34226 1.18110, 0.17717 0.30686 1.18110, 0.25055 0.25055 1.18110, 0.30686 0.17717 1.18110, 0.34226 0.09171 1.18110, 0.35433 -0.00000 1.18898, 0.34226 -0.09171 1.18898, 0.30686 -0.17717 1.18898, 0.25055 -0.25055 1.18898, 0.17717 -0.30686 1.18898, 0.09171 -0.34226 1.18898, 0.00000 -0.35433 1.18898, -0.09171 -0.34226 1.18898, -0.17717 -0.30686 1.18898, -0.25055 -0.25055 1.18898, -0.30686 -0.17717 1.18898, -0.34226 -0.09171 1.18898, -0.35433 -0.00000 1.18898, -0.34226 0.09171 1.18898, -0.30686 0.17717 1.18898, -0.25055 0.25055 1.18898, -0.17717 0.30686 1.18898, -0.09171 0.34226 1.18898, -0.00000 0.35433 1.18898, 0.09171 0.34226 1.18898, 0.17717 0.30686 1.18898, 0.25055 0.25055 1.18898, 0.30686 0.17717 1.18898, 0.34226 0.09171 1.18898 ] }
  coordIndex [ 23 22 21 20 19 18 17 16 15 14 13 12 11 10 9 8 7 6 5 4 3 2 1 0 -1, 24 25 26 27 28 29 30 31 32 33 34 35 36 37 38 39 40 41 42 43 44 45 46 47 -1, 0 1 25 24 -1, 1 2 26 25 -1, 2 3 27 26 -1, 3 4 28 27 -1, 4 5 29 28 -1, 5 6 30 29 -1, 6 7 31 30 -1, 7 8 32 31 -1, 8 9 33 32 -1, 9 10 34 33 -1, 10 11 35 34 -1, 11 12 36 35 -1, 12 13 37 36 -1, 13 14 38 37 -1, 14 15 39 38 -1, 15 16 40 39 -1, 16 17 41 40 -1, 17 18 42 41 -1, 18 19 43 42 -1, 19 20 44 43 -1, 20 21 45 44 -1, 21 22 46 45 -1, 22 23 47 46 -1, 23 0 24 47 -1 ]
 }
}
