#VRML V2.0 utf8
Shape {
 appearance Appearance { material Material { diffuseColor 0.08 0.08 0.08 } }
 geometry IndexedFaceSet {
  solid FALSE
  coord Coordinate { point [ -0.50000 0.50000 0.00000, 6.50000 0.50000 0.00000, -0.50000 -0.50000 0.00000, 6.50000 -0.50000 0.00000, -0.50000 0.50000 0.98425, 6.50000 0.50000 0.98425, -0.50000 -0.50000 0.98425, 6.50000 -0.50000 0.98425 ] }
  coordIndex [ 0 2 3 1 -1, 4 5 7 6 -1, 0 1 5 4 -1, 2 6 7 3 -1, 0 4 6 2 -1, 1 3 7 5 -1 ]
 }
}
Shape {
 appearance Appearance { material Material { diffuseColor 0.1 0.3 0.75 } }
 geometry IndexedFaceSet {
  solid FALSE
  coord Coordinate { point [ -4.76378 0.94882 0.98425, 10.78740 0.94882 0.98425, -4.76378 -10.86220 0.98425, 10.78740 -10.86220 0.98425, -4.76378 0.94882 1.61417, 10.78740 0.94882 1.61417, -4.76378 -10.86220 1.61417, 10.78740 -10.86220 1.61417 ] }
  coordIndex [ 0 2 3 1 -1, 4 5 7 6 -1, 0 1 5 4 -1, 2 6 7 3 -1, 0 4 6 2 -1, 1 3 7 5 -1 ]
 }
}
Shape {
 appearance Appearance { material Material { diffuseColor 0.05 0.05 0.07 } }
 geometry IndexedFaceSet {
  solid FALSE
  coord Coordinate { point [ -3.77953 -1.88583 1.61417, 10.31496 -1.88583 1.61417, -3.77953 -8.61811 1.61417, 10.31496 -8.61811 1.61417, -3.77953 -1.88583 2.20472, 10.31496 -1.88583 2.20472, -3.77953 -8.61811 2.20472, 10.31496 -8.61811 2.20472 ] }
  coordIndex [ 0 2 3 1 -1, 4 5 7 6 -1, 0 1 5 4 -1, 2 6 7 3 -1, 0 4 6 2 -1, 1 3 7 5 -1 ]
 }
}
Shape {
 appearance Appearance { material Material { diffuseColor 0.02 0.02 0.03 } }
 geometry IndexedFaceSet {
  solid FALSE
  coord Coordinate { point [ -2.71654 -2.24409 2.20472, 9.09449 -2.24409 2.20472, -2.71654 -8.26772 2.20472, 9.09449 -8.26772 2.20472, -2.71654 -2.24409 2.20866, 9.09449 -2.24409 2.20866, -2.71654 -8.26772 2.20866, 9.09449 -8.26772 2.20866 ] }
  coordIndex [ 0 2 3 1 -1, 4 5 7 6 -1, 0 1 5 4 -1, 2 6 7 3 -1, 0 4 6 2 -1, 1 3 7 5 -1 ]
 }
}
Shape {
 appearance Appearance { material Material { diffuseColor 0.85 0.7 0.3 } }
 geometry IndexedFaceSet {
  solid FALSE
  coord Coordinate { point [ -0.12598 0.12598 -1.18110, 0.12598 0.12598 -1.18110, -0.12598 -0.12598 -1.18110, 0.12598 -0.12598 -1.18110, -0.12598 0.12598 1.81102, 0.12598 0.12598 1.81102, -0.12598 -0.12598 1.81102, 0.12598 -0.12598 1.81102 ] }
  coordIndex [ 0 2 3 1 -1, 4 5 7 6 -1, 0 1 5 4 -1, 2 6 7 3 -1, 0 4 6 2 -1, 1 3 7 5 -1 ]
 }
}
Shape {
 appearance Appearance { material Material { diffuseColor 0.85 0.7 0.3 } }
 geometry IndexedFaceSet {
  solid FALSE
  coord Coordinate { point [ 0.87402 0.12598 -1.18110, 1.12598 0.12598 -1.18110, 0.87402 -0.12598 -1.18110, 1.12598 -0.12598 -1.18110, 0.87402 0.12598 1.81102, 1.12598 0.12598 1.81102, 0.87402 -0.12598 1.81102, 1.12598 -0.12598 1.81102 ] }
  coordIndex [ 0 2 3 1 -1, 4 5 7 6 -1, 0 1 5 4 -1, 2 6 7 3 -1, 0 4 6 2 -1, 1 3 7 5 -1 ]
 }
}
Shape {
 appearance Appearance { material Material { diffuseColor 0.85 0.7 0.3 } }
 geometry IndexedFaceSet {
  solid FALSE
  coord Coordinate { point [ 1.87402 0.12598 -1.18110, 2.12598 0.12598 -1.18110, 1.87402 -0.12598 -1.18110, 2.12598 -0.12598 -1.18110, 1.87402 0.12598 1.81102, 2.12598 0.12598 1.81102, 1.87402 -0.12598 1.81102, 2.12598 -0.12598 1.81102 ] }
  coordIndex [ 0 2 3 1 -1, 4 5 7 6 -1, 0 1 5 4 -1, 2 6 7 3 -1, 0 4 6 2 -1, 1 3 7 5 -1 ]
 }
}
Shape {
 appearance Appearance { material Material { diffuseColor 0.85 0.7 0.3 } }
 geometry IndexedFaceSet {
  solid FALSE
  coord Coordinate { point [ 2.87402 0.12598 -1.18110, 3.12598 0.12598 -1.18110, 2.87402 -0.12598 -1.18110, 3.12598 -0.12598 -1.18110, 2.87402 0.12598 1.81102, 3.12598 0.12598 1.81102, 2.87402 -0.12598 1.81102, 3.12598 -0.12598 1.81102 ] }
  coordIndex [ 0 2 3 1 -1, 4 5 7 6 -1, 0 1 5 4 -1, 2 6 7 3 -1, 0 4 6 2 -1, 1 3 7 5 -1 ]
 }
}
Shape {
 appearance Appearance { material Material { diffuseColor 0.85 0.7 0.3 } }
 geometry IndexedFaceSet {
  solid FALSE
  coord Coordinate { point [ 3.87402 0.12598 -1.18110, 4.12598 0.12598 -1.18110, 3.87402 -0.12598 -1.18110, 4.12598 -0.12598 -1.18110, 3.87402 0.12598 1.81102, 4.12598 0.12598 1.81102, 3.87402 -0.12598 1.81102, 4.12598 -0.12598 1.81102 ] }
  coordIndex [ 0 2 3 1 -1, 4 5 7 6 -1, 0 1 5 4 -1, 2 6 7 3 -1, 0 4 6 2 -1, 1 3 7 5 -1 ]
 }
}
Shape {
 appearance Appearance { material Material { diffuseColor 0.85 0.7 0.3 } }
 geometry IndexedFaceSet {
  solid FALSE
  coord Coordinate { point [ 4.87402 0.12598 -1.18110, 5.12598 0.12598 -1.18110, 4.87402 -0.12598 -1.18110, 5.12598 -0.12598 -1.18110, 4.87402 0.12598 1.81102, 5.12598 0.12598 1.81102, 4.87402 -0.12598 1.81102, 5.12598 -0.12598 1.81102 ] }
  coordIndex [ 0 2 3 1 -1, 4 5 7 6 -1, 0 1 5 4 -1, 2 6 7 3 -1, 0 4 6 2 -1, 1 3 7 5 -1 ]
 }
}
Shape {
 appearance Appearance { material Material { diffuseColor 0.85 0.7 0.3 } }
 geometry IndexedFaceSet {
  solid FALSE
  coord Coordinate { point [ 5.87402 0.12598 -1.18110, 6.12598 0.12598 -1.18110, 5.87402 -0.12598 -1.18110, 6.12598 -0.12598 -1.18110, 5.87402 0.12598 1.81102, 6.12598 0.12598 1.81102, 5.87402 -0.12598 1.81102, 6.12598 -0.12598 1.81102 ] }
  coordIndex [ 0 2 3 1 -1, 4 5 7 6 -1, 0 1 5 4 -1, 2 6 7 3 -1, 0 4 6 2 -1, 1 3 7 5 -1 ]
 }
}
Shape {
 appearance Appearance { material Material { diffuseColor 0.9 0.9 0.88 } }
 geometry IndexedFaceSet {
  solid FALSE
  coord Coordinate { point [ -2.81496 -0.00000 0.00000, -3.30709 -0.85239 0.00000, -4.29134 -0.85239 0.00000, -4.78346 -0.00000 0.00000, -4.29134 0.85239 0.00000, -3.30709 0.85239 0.00000, -2.81496 -0.00000 0.98425, -3.30709 -0.85239 0.98425, -4.29134 -0.85239 0.98425, -4.78346 -0.00000 0.98425, -4.29134 0.85239 0.98425, -3.30709 0.85239 0.98425 ] }
  coordIndex [ 5 4 3 2 1 0 -1, 6 7 8 9 10 11 -1, 0 1 7 6 -1, 1 2 8 7 -1, 2 3 9 8 -1, 3 4 10 9 -1, 4 5 11 10 -1, 5 0 6 11 -1 ]
 }
}
Shape {
 appearance Appearance { material Material { diffuseColor 0.78 0.78 0.8 } }
 geometry IndexedFaceSet {
  solid FALSE
  coord Coordinate { point [ -2.93307 -0.00000 1.61417, -2.96258 -0.22417 1.61417, -3.04911 -0.43307 1.61417, -3.18676 -0.61245 1.61417, -3.36614 -0.75010 1.61417, -3.57504 -0.83663 1.61417, -3.79921 -0.86614 1.61417, -4.02339 -0.83663 1.61417, -4.23228 -0.75010 1.61417, -4.41167 -0.61245 1.61417, -4.54931 -0.43307 1.61417, -4.63584 -0.22417 1.61417, -4.66535 -0.00000 1.61417, -4.63584 0.22417 1.61417, -4.54931 0.43307 1.61417, -4.41167 0.61245 1.61417, -4.23228 0.75010 1.61417, -4.02339 0.83663 1.61417, -3.79921 0.86614 1.61417, -3.57504 0.83663 1.61417, -3.36614 0.75010 1.61417, -3.18676 0.61245 1.61417, -3.04911 0.43307 1.61417, -2.96258 0.22417 1.61417, -2.93307 -0.00000 2.24409, -2.96258 -0.22417 2.24409, -3.04911 -0.43307 2.24409, -3.18676 -0.61245 2.24409, -3.36614 -0.75010 2.24409, -3.57504 -0.83663 2.24409, -3.79921 -0.86614 2.24409, -4.02339 -0.83663 2.24409, -4.23228 -0.75010 2.24409, -4.41167 -0.61245 2.24409, -4.54931 -0.43307 2.24409, -4.63584 -0.22417 2.24409, -4.66535 -0.00000 2.24409, -4.63584 0.22417 2.24409, -4.54931 0.43307 2.24409, -4.41167 0.61245 2.24409, -4.23228 0.75010 2.24409, -4.02339 0.83663 2.24409, -3.79921 0.86614 2.24409, -3.57504 0.83663 2.24409, -3.36614 0.75010 2.24409, -3.18676 0.61245 2.24409, -3.04911 0.43307 2.24409, -2.96258 0.22417 2.24409 ] }
  coordIndex [ 23 22 21 20 19 18 17 16 15 14 13 12 11 10 9 8 7 6 5 4 3 2 1 0 -1, 24 25 26 27 28 29 30 31 32 33 34 35 36 37 38 39 40 41 42 43 44 45 46 47 -1, 0 1 25 24 -1, 1 2 26 25 -1, 2 3 27 26 -1, 3 4 28 27 -1, 4 5 29 28 -1, 5 6 30 29 -1, 6 7 31 30 -1, 7 8 32 31 -1, 8 9 33 32 -1, 9 10 34 33 -1, 10 11 35 34 -1, 11 12 36 35 -1, 12 13 37 36 -1, 13 14 38 37 -1, 14 15 39 38 -1, 15 16 40 39 -1, 16 17 41 40 -1, 17 18 42 41 -1, 18 19 43 42 -1, 19 20 44 43 -1, 20 21 45 44 -1, 21 22 46 45 -1, 22 23 47 46 -1, 23 0 24 47 -1 ]
 }
}
Shape {
 appearance Appearance { material Material { diffuseColor 0.9 0.9 0.88 } }
 geometry IndexedFaceSet {
  solid FALSE
  coord Coordinate { point [ 10.78346 -0.00000 0.00000, 10.29134 -0.85239 0.00000, 9.30709 -0.85239 0.00000, 8.81496 -0.00000 0.00000, 9.30709 0.85239 0.00000, 10.29134 0.85239 0.00000, 10.78346 -0.00000 0.98425, 10.29134 -0.85239 0.98425, 9.30709 -0.85239 0.98425, 8.81496 -0.00000 0.98425, 9.30709 0.85239 0.98425, 10.29134 0.85239 0.98425 ] }
  coordIndex [ 5 4 3 2 1 0 -1, 6 7 8 9 10 11 -1, 0 1 7 6 -1, 1 2 8 7 -1, 2 3 9 8 -1, 3 4 10 9 -1, 4 5 11 10 -1, 5 0 6 11 -1 ]
 }
}
Shape {
 appearance Appearance { material Material { diffuseColor 0.78 0.78 0.8 } }
 geometry IndexedFaceSet {
  solid FALSE
  coord Coordinate { point [ 10.66535 -0.00000 1.61417, 10.63584 -0.22417 1.61417, 10.54931 -0.43307 1.61417, 10.41167 -0.61245 1.61417, 10.23228 -0.75010 1.61417, 10.02339 -0.83663 1.61417, 9.79921 -0.86614 1.61417, 9.57504 -0.83663 1.61417, 9.36614 -0.75010 1.61417, 9.18676 -0.61245 1.61417, 9.04911 -0.43307 1.61417, 8.96258 -0.22417 1.61417, 8.93307 -0.00000 1.61417, 8.96258 0.22417 1.61417, 9.04911 0.43307 1.61417, 9.18676 0.61245 1.61417, 9.36614 0.75010 1.61417, 9.57504 0.83663 1.61417, 9.79921 0.86614 1.61417, 10.02339 0.83663 1.61417, 10.23228 0.75010 1.61417, 10.41167 0.61245 1.61417, 10.54931 0.43307 1.61417, 10.63584 0.22417 1.61417, 10.66535 -0.00000 2.24409, 10.63584 -0.22417 2.24409, 10.54931 -0.43307 2.24409, 10.41167 -0.61245 2.24409, 10.23228 -0.75010 2.24409, 10.02339 -0.83663 2.24409, 9.79921 -0.86614 2.24409, 9.57504 -0.83663 2.24409, 9.36614 -0.75010 2.24409, 9.18676 -0.61245 2.24409, 9.04911 -0.43307 2.24409, 8.96258 -0.22417 2.24409, 8.93307 -0.00000 2.24409, 8.96258 0.22417 2.24409, 9.04911 0.43307 2.24409, 9.18676 0.61245 2.24409, 9.36614 0.75010 2.24409, 9.57504 0.83663 2.24409, 9.79921 0.86614 2.24409, 10.02339 0.83663 2.24409, 10.23228 0.75010 2.24409, 10.41167 0.61245 2.24409, 10.54931 0.43307 2.24409, 10.63584 0.22417 2.24409 ] }
  coordIndex [ 23 22 21 20 19 18 17 16 15 14 13 12 11 10 9 8 7 6 5 4 3 2 1 0 -1, 24 25 26 27 28 29 30 31 32 33 34 35 36 37 38 39 40 41 42 43 44 45 46 47 -1, 0 1 25 24 -1, 1 2 26 25 -1, 2 3 27 26 -1, 3 4 28 27 -1, 4 5 29 28 -1, 5 6 30 29 -1, 6 7 31 30 -1, 7 8 32 31 -1, 8 9 33 32 -1, 9 10 34 33 -1, 10 11 35 34 -1, 11 12 36 35 -1, 12 13 37 36 -1, 13 14 38 37 -1, 14 15 39 38 -1, 15 16 40 39 -1, 16 17 41 40 -1, 17 18 42 41 -1, 18 19 43 42 -1, 19 20 44 43 -1, 20 21 45 44 -1, 21 22 46 45 -1, 22 23 47 46 -1, 23 0 24 47 -1 ]
 }
}
Shape {
 appearance Appearance { material Material { diffuseColor 0.9 0.9 0.88 } }
 geometry IndexedFaceSet {
  solid FALSE
  coord Coordinate { point [ -2.81496 -9.90157 0.00000, -3.30709 -10.75396 0.00000, -4.29134 -10.75396 0.00000, -4.78346 -9.90157 0.00000, -4.29134 -9.04919 0.00000, -3.30709 -9.04919 0.00000, -2.81496 -9.90157 0.98425, -3.30709 -10.75396 0.98425, -4.29134 -10.75396 0.98425, -4.78346 -9.90157 0.98425, -4.29134 -9.04919 0.98425, -3.30709 -9.04919 0.98425 ] }
  coordIndex [ 5 4 3 2 1 0 -1, 6 7 8 9 10 11 -1, 0 1 7 6 -1, 1 2 8 7 -1, 2 3 9 8 -1, 3 4 10 9 -1, 4 5 11 10 -1, 5 0 6 11 -1 ]
 }
}
Shape {
 appearance Appearance { material Material { diffuseColor 0.78 0.78 0.8 } }
 geometry IndexedFaceSet {
  solid FALSE
  coord Coordinate { point [ -2.93307 -9.90157 1.61417, -2.96258 -10.12575 1.61417, -3.04911 -10.33465 1.61417, -3.18676 -10.51403 1.61417, -3.36614 -10.65168 1.61417, -3.57504 -10.73820 1.61417, -3.79921 -10.76772 1.61417, -4.02339 -10.73820 1.61417, -4.23228 -10.65168 1.61417, -4.41167 -10.51403 1.61417, -4.54931 -10.33465 1.61417, -4.63584 -10.12575 1.61417, -4.66535 -9.90157 1.61417, -4.63584 -9.67740 1.61417, -4.54931 -9.46850 1.61417, -4.41167 -9.28912 1.61417, -4.23228 -9.15147 1.61417, -4.02339 -9.06495 1.61417, -3.79921 -9.03543 1.61417, -3.57504 -9.06495 1.61417, -3.36614 -9.15147 1.61417, -3.18676 -9.28912 1.61417, -3.04911 -9.46850 1.61417, -2.96258 -9.67740 1.61417, -2.93307 -9.90157 2.24409, -2.96258 -10.12575 2.24409, -3.04911 -10.33465 2.24409, -3.18676 -10.51403 2.24409, -3.36614 -10.65168 2.24409, -3.57504 -10.73820 2.24409, -3.79921 -10.76772 2.24409, -4.02339 -10.73820 2.24409, -4.23228 -10.65168 2.24409, -4.41167 -10.51403 2.24409, -4.54931 -10.33465 2.24409, -4.63584 -10.12575 2.24409, -4.66535 -9.90157 2.24409, -4.63584 -9.67740 2.24409, -4.54931 -9.46850 2.24409, -4.41167 -9.28912 2.24409, -4.23228 -9.15147 2.24409, -4.02339 -9.06495 2.24409, -3.79921 -9.03543 2.24409, -3.57504 -9.06495 2.24409, -3.36614 -9.15147 2.24409, -3.18676 -9.28912 2.24409, -3.04911 -9.46850 2.24409, -2.96258 -9.67740 2.24409 ] }
  coordIndex [ 23 22 21 20 19 18 17 16 15 14 13 12 11 10 9 8 7 6 5 4 3 2 1 0 -1, 24 25 26 27 28 29 30 31 32 33 34 35 36 37 38 39 40 41 42 43 44 45 46 47 -1, 0 1 25 24 -1, 1 2 26 25 -1, 2 3 27 26 -1, 3 4 28 27 -1, 4 5 29 28 -1, 5 6 30 29 -1, 6 7 31 30 -1, 7 8 32 31 -1, 8 9 33 32 -1, 9 10 34 33 -1, 10 11 35 34 -1, 11 12 36 35 -1, 12 13 37 36 -1, 13 14 38 37 -1, 14 15 39 38 -1, 15 16 40 39 -1, 16 17 41 40 -1, 17 18 42 41 -1, 18 19 43 42 -1, 19 20 44 43 -1, 20 21 45 44 -1, 21 22 46 45 -1, 22 23 47 46 -1, 23 0 24 47 -1 ]
 }
}
Shape {
 appearance Appearance { material Material { diffuseColor 0.9 0.9 0.88 } }
 geometry IndexedFaceSet {
  solid FALSE
  coord Coordinate { point [ 10.78346 -9.90157 0.00000, 10.29134 -10.75396 0.00000, 9.30709 -10.75396 0.00000, 8.81496 -9.90157 0.00000, 9.30709 -9.04919 0.00000, 10.29134 -9.04919 0.00000, 10.78346 -9.90157 0.98425, 10.29134 -10.75396 0.98425, 9.30709 -10.75396 0.98425, 8.81496 -9.90157 0.98425, 9.30709 -9.04919 0.98425, 10.29134 -9.04919 0.98425 ] }
  coordIndex [ 5 4 3 2 1 0 -1, 6 7 8 9 10 11 -1, 0 1 7 6 -1, 1 2 8 7 -1, 2 3 9 8 -1, 3 4 10 9 -1, 4 5 11 10 -1, 5 0 6 11 -1 ]
 }
}
Shape {
 appearance Appearance { material Material { diffuseColor 0.78 0.78 0.8 } }
 geometry IndexedFaceSet {
  solid FALSE
  coord Coordinate { point [ 10.66535 -9.90157 1.61417, 10.63584 -10.12575 1.61417, 10.54931 -10.33465 1.61417, 10.41167 -10.51403 1.61417, 10.23228 -10.65168 1.61417, 10.02339 -10.73820 1.61417, 9.79921 -10.76772 1.61417, 9.57504 -10.73820 1.61417, 9.36614 -10.65168 1.61417, 9.18676 -10.51403 1.61417, 9.04911 -10.33465 1.61417, 8.96258 -10.12575 1.61417, 8.93307 -9.90157 1.61417, 8.96258 -9.67740 1.61417, 9.04911 -9.46850 1.61417, 9.18676 -9.28912 1.61417, 9.36614 -9.15147 1.61417, 9.57504 -9.06495 1.61417, 9.79921 -9.03543 1.61417, 10.02339 -9.06495 1.61417, 10.23228 -9.15147 1.61417, 10.41167 -9.28912 1.61417, 10.54931 -9.46850 1.61417, 10.63584 -9.67740 1.61417, 10.66535 -9.90157 2.24409, 10.63584 -10.12575 2.24409, 10.54931 -10.33465 2.24409, 10.41167 -10.51403 2.24409, 10.23228 -10.65168 2.24409, 10.02339 -10.73820 2.24409, 9.79921 -10.76772 2.24409, 9.57504 -10.73820 2.24409, 9.36614 -10.65168 2.24409, 9.18676 -10.51403 2.24409, 9.04911 -10.33465 2.24409, 8.96258 -10.12575 2.24409, 8.93307 -9.90157 2.24409, 8.96258 -9.67740 2.24409, 9.04911 -9.46850 2.24409, 9.18676 -9.28912 2.24409, 9.36614 -9.15147 2.24409, 9.57504 -9.06495 2.24409, 9.79921 -9.03543 2.24409, 10.02339 -9.06495 2.24409, 10.23228 -9.15147 2.24409, 10.41167 -9.28912 2.24409, 10.54931 -9.46850 2.24409, 10.63584 -9.67740 2.24409 ] }
  coordIndex [ 23 22 21 20 19 18 17 16 15 14 13 12 11 10 9 8 7 6 5 4 3 2 1 0 -1, 24 25 26 27 28 29 30 31 32 33 34 35 36 37 38 39 40 41 42 43 44 45 46 47 -1, 0 1 25 24 -1, 1 2 26 25 -1, 2 3 27 26 -1, 3 4 28 27 -1, 4 5 29 28 -1, 5 6 30 29 -1, 6 7 31 30 -1, 7 8 32 31 -1, 8 9 33 32 -1, 9 10 34 33 -1, 10 11 35 34 -1, 11 12 36 35 -1, 12 13 37 36 -1, 13 14 38 37 -1, 14 15 39 38 -1, 15 16 40 39 -1, 16 17 41 40 -1, 17 18 42 41 -1, 18 19 43 42 -1, 19 20 44 43 -1, 20 21 45 44 -1, 21 22 46 45 -1, 22 23 47 46 -1, 23 0 24 47 -1 ]
 }
}
