#VRML V2.0 utf8
Shape {
 appearance Appearance { material Material { diffuseColor 0.08 0.08 0.08 } }
 geometry IndexedFaceSet {
  solid FALSE
  coord Coordinate { point [ 0.09843 1.37795 0.00000, 4.82283 1.37795 0.00000, 0.09843 -3.34646 0.00000, 4.82283 -3.34646 0.00000, 0.09843 1.37795 1.41732, 4.82283 1.37795 1.41732, 0.09843 -3.34646 1.41732, 4.82283 -3.34646 1.41732 ] }
  coordIndex [ 0 2 3 1 -1, 4 5 7 6 -1, 0 1 5 4 -1, 2 6 7 3 -1, 0 4 6 2 -1, 1 3 7 5 -1 ]
 }
}
Shape {
 appearance Appearance { material Material { diffuseColor 0.78 0.78 0.8 } }
 geometry IndexedFaceSet {
  solid FALSE
  coord Coordinate { point [ 0.23622 1.24016 1.41732, 4.68504 1.24016 1.41732, 0.23622 -3.20866 1.41732, 4.68504 -3.20866 1.41732, 0.23622 1.24016 1.53543, 4.68504 1.24016 1.53543, 0.23622 -3.20866 1.53543, 4.68504 -3.20866 1.53543 ] }
  coordIndex [ 0 2 3 1 -1, 4 5 7 6 -1, 0 1 5 4 -1, 2 6 7 3 -1, 0 4 6 2 -1, 1 3 7 5 -1 ]
 }
}
Shape {
 appearance Appearance { material Material { diffuseColor 0.08 0.08 0.08 } }
 geometry IndexedFaceSet {
  solid FALSE
  coord Coordinate { point [ 3.87795 -0.98425 1.53543, 3.82966 -1.35108 1.53543, 3.68807 -1.69291 1.53543, 3.46283 -1.98645 1.53543, 3.16929 -2.21169 1.53543, 2.82746 -2.35328 1.53543, 2.46063 -2.40157 1.53543, 2.09380 -2.35328 1.53543, 1.75197 -2.21169 1.53543, 1.45843 -1.98645 1.53543, 1.23319 -1.69291 1.53543, 1.09160 -1.35108 1.53543, 1.04331 -0.98425 1.53543, 1.09160 -0.61742 1.53543, 1.23319 -0.27559 1.53543, 1.45843 0.01795 1.53543, 1.75197 0.24319 1.53543, 2.09380 0.38478 1.53543, 2.46063 0.43307 1.53543, 2.82746 0.38478 1.53543, 3.16929 0.24319 1.53543, 3.46283 0.01795 1.53543, 3.68807 -0.27559 1.53543, 3.82966 -0.61742 1.53543, 3.87795 -0.98425 2.87402, 3.82966 -1.35108 2.87402, 3.68807 -1.69291 2.87402, 3.46283 -1.98645 2.87402, 3.16929 -2.21169 2.87402, 2.82746 -2.35328 2.87402, 2.46063 -2.40157 2.87402, 2.09380 -2.35328 2.87402, 1.75197 -2.21169 2.87402, 1.45843 -1.98645 2.87402, 1.23319 -1.69291 2.87402, 1.09160 -1.35108 2.87402, 1.04331 -0.98425 2.87402, 1.09160 -0.61742 2.87402, 1.23319 -0.27559 2.87402, 1.45843 0.01795 2.87402, 1.75197 0.24319 2.87402, 2.09380 0.38478 2.87402, 2.46063 0.43307 2.87402, 2.82746 0.38478 2.87402, 3.16929 0.24319 2.87402, 3.46283 0.01795 2.87402, 3.68807 -0.27559 2.87402, 3.82966 -0.61742 2.87402 ] }
  coordIndex [ 23 22 21 20 19 18 17 16 15 14 13 12 11 10 9 8 7 6 5 4 3 2 1 0 -1, 24 25 26 27 28 29 30 31 32 33 34 35 36 37 38 39 40 41 42 43 44 45 46 47 -1, 0 1 25 24 -1, 1 2 26 25 -1, 2 3 27 26 -1, 3 4 28 27 -1, 4 5 29 28 -1, 5 6 30 29 -1, 6 7 31 30 -1, 7 8 32 31 -1, 8 9 33 32 -1, 9 10 34 33 -1, 10 11 35 34 -1, 11 12 36 35 -1, 12 13 37 36 -1, 13 14 38 37 -1, 14 15 39 38 -1, 15 16 40 39 -1, 16 17 41 40 -1, 17 18 42 41 -1, 18 19 43 42 -1, 19 20 44 43 -1, 20 21 45 44 -1, 21 22 46 45 -1, 22 23 47 46 -1, 23 0 24 47 -1 ]
 }
}
